<?xml version="1.0" encoding="utf-8"?>
<!-- Generator: Adobe Illustrator 25.0.1, SVG Export Plug-In . SVG Version: 6.00 Build 0)  -->
<svg version="1.1" xmlns="http://www.w3.org/2000/svg" xmlns:xlink="http://www.w3.org/1999/xlink" x="0px" y="0px"
	 viewBox="0 0 231.27 124.82" style="enable-background:new 0 0 231.27 124.82;" xml:space="preserve">
<style type="text/css">
	.st0{display:none;}
	.st1{display:inline;}
	.st2{fill:#C3AFCD;}
	.st3{fill:#44356C;}
	.st4{fill:#CEBCD8;}
	.st5{fill:#B59DC4;}
	.st6{opacity:0.08;}
	.st7{fill:#FFFFFF;}
	.st8{fill:#56A8A6;}
	.st9{fill:#6BC1C4;}
	.st10{fill:#E09D6C;}
	.st11{fill:#EDBA8C;}
	.st12{fill:none;stroke:#CEBCD8;stroke-width:2;stroke-miterlimit:10;}
</style>
<g id="BACKGROUND">
</g>
<g id="OBJECTS">
	<g class="st0">
		<g class="st1">
			<path class="st2" d="M519.03,47.87H271.61c-3.77,0-6.83-3.06-6.83-6.83v-151.1c0-3.77,3.06-6.83,6.83-6.83h247.42
				c3.77,0,6.83,3.06,6.83,6.83v151.1C525.86,44.81,522.8,47.87,519.03,47.87z"/>
			<rect x="273.55" y="-107.6" class="st3" width="243.17" height="146.35"/>
			<path class="st4" d="M537.64,60.84H251.61c-5.26,0-9.52-4.26-9.52-9.52v-3.46h305.06v3.46
				C547.15,56.58,542.89,60.84,537.64,60.84z"/>
			<path class="st5" d="M415.62,54.36h-40.6c-3.58,0-6.49-2.9-6.49-6.49l0,0h53.58l0,0C422.11,51.45,419.2,54.36,415.62,54.36z"/>
			<g>
				<rect x="295.29" y="-90.12" style="fill:none;" width="208.94" height="119.45"/>
				
					<text id="P4Mth_x27_25rQyB__x2C_Hc9_x5F_KR_x3D__x27_btn_ogGM_x5F_pzr3ybW_Gd_x2B_CsYxn8_x5F_PE_u_x2B_J_x25_E_x5E_9_x21_hx_x3F_p__Y_x21_-rq_x3B_7GxjTW_N_x5F_42_x2A_e_x21_m_x24_3Fe_iXLCfiM" transform="matrix(1 0 0 1 295.292 -81.9568)"><tspan x="0" y="0" class="st9" style="font-family:'Montserrat-Medium'; font-size:11px;">&lt;section id=”competences”&gt;</tspan><tspan x="0" y="21" class="st9" style="font-family:'Montserrat-Medium'; font-size:11px;">  &lt;ul&gt;</tspan><tspan x="0" y="42" class="st9" style="font-family:'Montserrat-Medium'; font-size:11px;">    &lt;li&gt;Elles sont à gauche&lt;/li&gt;</tspan><tspan x="0" y="63" class="st9" style="font-family:'Montserrat-Medium'; font-size:11px;">    &lt;li&gt;Où au dessus&lt;/li&gt;</tspan><tspan x="149.06" y="63" class="st9" style="font-family:'Montserrat-Medium'; font-size:11px; letter-spacing:6;">	</tspan><tspan x="0" y="84" class="st9" style="font-family:'Montserrat-Medium'; font-size:11px;">  &lt;/ul&gt;</tspan><tspan x="0" y="105" class="st9" style="font-family:'Montserrat-Medium'; font-size:11px;">&lt;/section&gt;</tspan></text>
			</g>
			<g class="st6">
				<polygon class="st7" points="394.41,47.87 360.78,47.87 417.31,-116.9 450.94,-116.9 				"/>
				<polygon class="st7" points="349.33,47.87 338.3,47.87 394.83,-116.9 405.86,-116.9 				"/>
			</g>
		</g>
		<g class="st1">
			<path class="st8" d="M361.43-98h-49.19c-5.69,0-10.3-4.61-10.3-10.3v-49.19c0-5.69,4.61-10.3,10.3-10.3h49.19
				c5.69,0,10.3,4.61,10.3,10.3v49.19C371.73-102.62,367.12-98,361.43-98z"/>
			<path class="st9" d="M356.37-103.11h-49.19c-5.69,0-10.3-4.61-10.3-10.3v-49.19c0-5.69,4.61-10.3,10.3-10.3h49.19
				c5.69,0,10.3,4.61,10.3,10.3v49.19C366.67-107.72,362.06-103.11,356.37-103.11z"/>
			<path class="st7" d="M331.77-159.14l-19.01,3.75v10.35c0,10.63,5.66,20.45,14.86,25.77l4.15,2.4l4.15-2.4
				c9.2-5.32,14.86-15.15,14.86-25.77v-10.35L331.77-159.14z M343.3-144.92l-13.16,13.16c-0.49,0.49-1.12,0.73-1.76,0.73
				c-0.64,0-1.27-0.24-1.76-0.73l-6.39-6.39c-0.97-0.97-0.97-2.55,0-3.52c0.97-0.97,2.55-0.97,3.52,0l4.63,4.63l11.4-11.4
				c0.97-0.97,2.55-0.97,3.52,0C344.28-147.47,344.28-145.89,343.3-144.92z"/>
		</g>
		<g class="st1">
			<path class="st10" d="M523.45,88.56h-49.19c-5.69,0-10.3-4.61-10.3-10.3V29.07c0-5.69,4.61-10.3,10.3-10.3h49.19
				c5.69,0,10.3,4.61,10.3,10.3v49.19C533.76,83.95,529.14,88.56,523.45,88.56z"/>
			<path class="st11" d="M518.39,83.45H469.2c-5.69,0-10.3-4.61-10.3-10.3V23.97c0-5.69,4.61-10.3,10.3-10.3h49.19
				c5.69,0,10.3,4.61,10.3,10.3v49.19C528.69,78.84,524.08,83.45,518.39,83.45z"/>
			<path class="st7" d="M503.93,41.79v-2.05c0-5.58-4.54-10.13-10.13-10.13c-5.58,0-10.13,4.54-10.13,10.13v2.05h-2.73v25.72h25.72
				V41.79H503.93z M486.67,39.74c0-3.93,3.2-7.13,7.13-7.13c3.93,0,7.13,3.2,7.13,7.13v2.05h-14.26V39.74z"/>
		</g>
		<g class="st1">
			<g>
				<path class="st2" d="M469.08-173.97h-5.15c-0.27-0.83-0.61-1.63-1-2.4l3.65-3.65c0.87-0.87,0.87-2.27,0-3.14l-4.66-4.66
					c-0.87-0.87-2.27-0.87-3.14,0l-3.65,3.65c-0.77-0.39-1.57-0.73-2.4-1v-5.15c0-1.23-0.99-2.22-2.22-2.22h-6.59
					c-1.23,0-2.22,0.99-2.22,2.22v5.15c-0.83,0.27-1.63,0.61-2.4,1l-3.65-3.65c-0.87-0.87-2.27-0.87-3.14,0l-4.66,4.66
					c-0.87,0.87-0.87,2.27,0,3.14l3.65,3.65c-0.39,0.77-0.73,1.57-1,2.4h-5.15c-1.23,0-2.22,0.99-2.22,2.22v6.59
					c0,1.23,0.99,2.22,2.22,2.22h5.15c0.27,0.83,0.61,1.63,1,2.4l-3.65,3.65c-0.87,0.87-0.87,2.27,0,3.14l4.66,4.66
					c0.87,0.87,2.27,0.87,3.14,0l3.65-3.65c0.77,0.39,1.57,0.73,2.4,1v5.15c0,1.23,0.99,2.22,2.22,2.22h6.59
					c1.23,0,2.22-0.99,2.22-2.22v-5.15c0.83-0.27,1.63-0.61,2.4-1l3.65,3.65c0.87,0.87,2.27,0.87,3.14,0l4.66-4.66
					c0.87-0.87,0.87-2.27,0-3.14l-3.65-3.65c0.39-0.77,0.73-1.57,1-2.4h5.15c1.23,0,2.22-0.99,2.22-2.22v-6.59
					C471.3-172.98,470.3-173.97,469.08-173.97z M447.2-159.42c-4.99,0-9.04-4.05-9.04-9.04c0-4.99,4.05-9.04,9.04-9.04
					c4.99,0,9.04,4.05,9.04,9.04C456.24-163.47,452.2-159.42,447.2-159.42z"/>
				<path class="st3" d="M468.08-175.98h-5.15c-0.27-0.83-0.61-1.63-1-2.4l3.65-3.65c0.87-0.87,0.87-2.27,0-3.14l-4.66-4.66
					c-0.87-0.87-2.27-0.87-3.14,0l-3.65,3.65c-0.77-0.39-1.57-0.73-2.4-1v-5.15c0-1.23-0.99-2.22-2.22-2.22h-6.59
					c-1.23,0-2.22,0.99-2.22,2.22v5.15c-0.83,0.27-1.63,0.61-2.4,1l-3.65-3.65c-0.87-0.87-2.27-0.87-3.14,0l-4.66,4.66
					c-0.87,0.87-0.87,2.27,0,3.14l3.65,3.65c-0.39,0.77-0.73,1.57-1,2.4h-5.15c-1.23,0-2.22,0.99-2.22,2.22v6.59
					c0,1.23,0.99,2.22,2.22,2.22h5.15c0.27,0.83,0.61,1.63,1,2.4l-3.65,3.65c-0.87,0.87-0.87,2.27,0,3.14l4.66,4.66
					c0.87,0.87,2.27,0.87,3.14,0l3.65-3.65c0.77,0.39,1.57,0.73,2.4,1v5.15c0,1.23,0.99,2.22,2.22,2.22h6.59
					c1.23,0,2.22-0.99,2.22-2.22v-5.15c0.83-0.27,1.63-0.61,2.4-1l3.65,3.65c0.87,0.87,2.27,0.87,3.14,0l4.66-4.66
					c0.87-0.87,0.87-2.27,0-3.14l-3.65-3.65c0.39-0.77,0.73-1.57,1-2.4h5.15c1.23,0,2.22-0.99,2.22-2.22v-6.59
					C470.3-174.98,469.3-175.98,468.08-175.98z M446.2-161.42c-4.99,0-9.04-4.05-9.04-9.04c0-4.99,4.05-9.04,9.04-9.04
					c4.99,0,9.04,4.05,9.04,9.04C455.24-165.47,451.2-161.42,446.2-161.42z"/>
			</g>
			<g>
				<path class="st2" d="M325.9,72.47h-5.15c-0.27-0.83-0.61-1.63-1-2.4l3.65-3.65c0.87-0.87,0.87-2.27,0-3.14l-4.66-4.66
					c-0.87-0.87-2.27-0.87-3.14,0l-3.65,3.65c-0.77-0.39-1.57-0.73-2.4-1v-5.15c0-1.23-0.99-2.22-2.22-2.22h-6.59
					c-1.23,0-2.22,0.99-2.22,2.22v5.15c-0.83,0.27-1.63,0.61-2.4,1l-3.65-3.65c-0.87-0.87-2.27-0.87-3.14,0l-4.66,4.66
					c-0.87,0.87-0.87,2.27,0,3.14l3.65,3.65c-0.39,0.77-0.73,1.57-1,2.4h-5.15c-1.23,0-2.22,0.99-2.22,2.22v6.59
					c0,1.23,0.99,2.22,2.22,2.22h5.15c0.27,0.83,0.61,1.63,1,2.4l-3.65,3.65c-0.87,0.87-0.87,2.27,0,3.14l4.66,4.66
					c0.87,0.87,2.27,0.87,3.14,0l3.65-3.65c0.77,0.39,1.57,0.73,2.4,1v5.15c0,1.23,0.99,2.22,2.22,2.22h6.59
					c1.23,0,2.22-0.99,2.22-2.22v-5.15c0.83-0.27,1.63-0.61,2.4-1l3.65,3.65c0.87,0.87,2.27,0.87,3.14,0l4.66-4.66
					c0.87-0.87,0.87-2.27,0-3.14l-3.65-3.65c0.39-0.77,0.73-1.57,1-2.4h5.15c1.23,0,2.22-0.99,2.22-2.22v-6.59
					C328.12,73.47,327.13,72.47,325.9,72.47z M304.03,87.03c-4.99,0-9.04-4.05-9.04-9.04c0-4.99,4.05-9.04,9.04-9.04
					c4.99,0,9.04,4.05,9.04,9.04C313.07,82.98,309.02,87.03,304.03,87.03z"/>
				<path class="st3" d="M324.9,70.47h-5.15c-0.27-0.83-0.61-1.63-1-2.4l3.65-3.65c0.87-0.87,0.87-2.27,0-3.14l-4.66-4.66
					c-0.87-0.87-2.27-0.87-3.14,0l-3.65,3.65c-0.77-0.39-1.57-0.73-2.4-1v-5.15c0-1.23-0.99-2.22-2.22-2.22h-6.59
					c-1.23,0-2.22,0.99-2.22,2.22v5.15c-0.83,0.27-1.63,0.61-2.4,1l-3.65-3.65c-0.87-0.87-2.27-0.87-3.14,0l-4.66,4.66
					c-0.87,0.87-0.87,2.27,0,3.14l3.65,3.65c-0.39,0.77-0.73,1.57-1,2.4h-5.15c-1.23,0-2.22,0.99-2.22,2.22v6.59
					c0,1.23,0.99,2.22,2.22,2.22h5.15c0.27,0.83,0.61,1.63,1,2.4l-3.65,3.65c-0.87,0.87-0.87,2.27,0,3.14l4.66,4.66
					c0.87,0.87,2.27,0.87,3.14,0l3.65-3.65c0.77,0.39,1.57,0.73,2.4,1v5.15c0,1.23,0.99,2.22,2.22,2.22h6.59
					c1.23,0,2.22-0.99,2.22-2.22v-5.15c0.83-0.27,1.63-0.61,2.4-1l3.65,3.65c0.87,0.87,2.27,0.87,3.14,0l4.66-4.66
					c0.87-0.87,0.87-2.27,0-3.14l-3.65-3.65c0.39-0.77,0.73-1.57,1-2.4h5.15c1.23,0,2.22-0.99,2.22-2.22v-6.59
					C327.12,71.47,326.13,70.47,324.9,70.47z M303.03,85.03c-4.99,0-9.04-4.05-9.04-9.04c0-4.99,4.05-9.04,9.04-9.04
					c4.99,0,9.04,4.05,9.04,9.04C312.07,80.98,308.02,85.03,303.03,85.03z"/>
			</g>
			<g>
				<path class="st2" d="M508.36-149.3h-3.35c-0.18-0.54-0.4-1.06-0.65-1.56l2.37-2.37c0.56-0.56,0.56-1.48,0-2.04l-3.03-3.03
					c-0.56-0.56-1.48-0.56-2.04,0l-2.37,2.37c-0.5-0.25-1.02-0.47-1.56-0.65v-3.35c0-0.8-0.65-1.45-1.45-1.45h-4.29
					c-0.8,0-1.45,0.65-1.45,1.45v3.35c-0.54,0.18-1.06,0.4-1.56,0.65l-2.37-2.37c-0.56-0.56-1.48-0.56-2.04,0l-3.03,3.03
					c-0.56,0.56-0.56,1.48,0,2.04l2.37,2.37c-0.25,0.5-0.47,1.02-0.65,1.56h-3.35c-0.8,0-1.45,0.65-1.45,1.45v4.29
					c0,0.8,0.65,1.45,1.45,1.45h3.35c0.18,0.54,0.4,1.06,0.65,1.56l-2.37,2.37c-0.56,0.56-0.56,1.48,0,2.04l3.03,3.03
					c0.56,0.56,1.48,0.56,2.04,0l2.37-2.37c0.5,0.25,1.02,0.47,1.56,0.65v3.35c0,0.8,0.65,1.45,1.45,1.45h4.29
					c0.8,0,1.45-0.65,1.45-1.45v-3.35c0.54-0.18,1.06-0.4,1.56-0.65l2.37,2.37c0.56,0.56,1.48,0.56,2.04,0l3.03-3.03
					c0.56-0.56,0.56-1.48,0-2.04l-2.37-2.37c0.25-0.5,0.47-1.02,0.65-1.56h3.35c0.8,0,1.45-0.65,1.45-1.45v-4.29
					C509.8-148.66,509.16-149.3,508.36-149.3z M494.12-139.83c-3.25,0-5.88-2.63-5.88-5.88c0-3.25,2.63-5.88,5.88-5.88
					c3.25,0,5.88,2.63,5.88,5.88C500.01-142.47,497.37-139.83,494.12-139.83z"/>
				<path class="st3" d="M507.71-150.61h-3.35c-0.18-0.54-0.4-1.06-0.65-1.56l2.37-2.37c0.56-0.56,0.56-1.48,0-2.04l-3.03-3.03
					c-0.56-0.56-1.48-0.56-2.04,0l-2.37,2.37c-0.5-0.25-1.02-0.47-1.56-0.65v-3.35c0-0.8-0.65-1.45-1.45-1.45h-4.29
					c-0.8,0-1.45,0.65-1.45,1.45v3.35c-0.54,0.18-1.06,0.4-1.56,0.65l-2.37-2.37c-0.56-0.56-1.48-0.56-2.04,0l-3.03,3.03
					c-0.56,0.56-0.56,1.48,0,2.04l2.37,2.37c-0.25,0.5-0.47,1.02-0.65,1.56h-3.35c-0.8,0-1.45,0.65-1.45,1.45v4.29
					c0,0.8,0.65,1.45,1.45,1.45h3.35c0.18,0.54,0.4,1.06,0.65,1.56l-2.37,2.37c-0.56,0.56-0.56,1.48,0,2.04l3.03,3.03
					c0.56,0.56,1.48,0.56,2.04,0l2.37-2.37c0.5,0.25,1.02,0.47,1.56,0.65v3.35c0,0.8,0.65,1.45,1.45,1.45h4.29
					c0.8,0,1.45-0.65,1.45-1.45v-3.35c0.54-0.18,1.06-0.4,1.56-0.65l2.37,2.37c0.56,0.56,1.48,0.56,2.04,0l3.03-3.03
					c0.56-0.56,0.56-1.48,0-2.04l-2.37-2.37c0.25-0.5,0.47-1.02,0.65-1.56h3.35c0.8,0,1.45-0.65,1.45-1.45v-4.29
					C509.15-149.96,508.51-150.61,507.71-150.61z M493.47-141.13c-3.25,0-5.88-2.63-5.88-5.88c0-3.25,2.63-5.88,5.88-5.88
					s5.88,2.63,5.88,5.88C499.36-143.77,496.72-141.13,493.47-141.13z"/>
			</g>
		</g>
	</g>
	<g>
		<g>
			<g>
				<polyline class="st12" points="135.45,124.82 135.45,71.76 164.57,42.64 164.57,3.57 				"/>
				<g>
					<path class="st4" d="M168.33,3.76c0-2.08-1.68-3.76-3.76-3.76s-3.76,1.68-3.76,3.76c0,2.08,1.68,3.76,3.76,3.76
						S168.33,5.84,168.33,3.76z"/>
				</g>
			</g>
		</g>
		<g>
			<g>
				<polyline class="st12" points="201.63,124.82 201.63,104.83 184.13,85.77 184.13,46.71 				"/>
				<g>
					<path class="st4" d="M187.89,46.89c0-2.08-1.68-3.76-3.76-3.76s-3.76,1.68-3.76,3.76c0,2.08,1.68,3.76,3.76,3.76
						S187.89,48.97,187.89,46.89z"/>
				</g>
			</g>
		</g>
		<g>
			<g>
				<polyline class="st12" points="47.29,124.82 47.29,115.69 29.79,96.63 29.79,65.98 				"/>
				<g>
					<path class="st4" d="M33.55,66.17c0-2.08-1.68-3.76-3.76-3.76s-3.76,1.68-3.76,3.76c0,2.08,1.68,3.76,3.76,3.76
						S33.55,68.25,33.55,66.17z"/>
				</g>
			</g>
		</g>
		<g>
			<g>
				<polyline class="st12" points="69.99,124.82 69.99,104.83 87.32,85.77 87.32,46.71 				"/>
				<g>
					<path class="st4" d="M91.08,46.89c0-2.08-1.68-3.76-3.76-3.76s-3.76,1.68-3.76,3.76c0,2.08,1.68,3.76,3.76,3.76
						S91.08,48.97,91.08,46.89z"/>
				</g>
			</g>
		</g>
		<g>
			<g>
				<line class="st12" x1="113.28" y1="124.82" x2="113.28" y2="77.2"/>
				<g>
					<path class="st4" d="M117.04,77.39c0-2.08-1.68-3.76-3.76-3.76s-3.76,1.68-3.76,3.76c0,2.08,1.68,3.76,3.76,3.76
						S117.04,79.47,117.04,77.39z"/>
				</g>
			</g>
		</g>
		<g>
			<g>
				<line class="st12" x1="3.76" y1="124.82" x2="3.76" y2="100.15"/>
				<g>
					<path class="st4" d="M7.52,100.34c0-2.08-1.68-3.76-3.76-3.76S0,98.26,0,100.34c0,2.08,1.68,3.76,3.76,3.76
						S7.52,102.41,7.52,100.34z"/>
				</g>
			</g>
		</g>
		<g>
			<g>
				<line class="st12" x1="227.51" y1="124.82" x2="227.51" y2="100.15"/>
				<g>
					<path class="st4" d="M231.27,100.34c0-2.08-1.68-3.76-3.76-3.76s-3.76,1.68-3.76,3.76c0,2.08,1.68,3.76,3.76,3.76
						S231.27,102.41,231.27,100.34z"/>
				</g>
			</g>
		</g>
		<g>
			<g>
				<line class="st12" x1="164.57" y1="124.82" x2="164.57" y2="100.15"/>
				<g>
					<path class="st4" d="M168.33,100.34c0-2.08-1.68-3.76-3.76-3.76s-3.76,1.68-3.76,3.76c0,2.08,1.68,3.76,3.76,3.76
						S168.33,102.41,168.33,100.34z"/>
				</g>
			</g>
		</g>
	</g>
</g>
</svg>
