<?xml version="1.0" encoding="utf-8"?>
<!-- Generator: Adobe Illustrator 25.0.1, SVG Export Plug-In . SVG Version: 6.00 Build 0)  -->
<svg version="1.1" xmlns="http://www.w3.org/2000/svg" xmlns:xlink="http://www.w3.org/1999/xlink" x="0px" y="0px"
	 viewBox="0 0 305.06 296.64" style="enable-background:new 0 0 305.06 296.64;" xml:space="preserve">
<style type="text/css">
	.st0{fill:#C3AFCD;}
	.st1{fill:#44356C;}
	.st2{fill:#CEBCD8;}
	.st3{fill:#B59DC4;}
	.st4{fill:none;}
	.st5{fill:#6BC1C4;}
	.st6{font-family:'Montserrat-Medium';}
	.st7{font-size:11px;}
	.st8{letter-spacing:6;}
	.st9{opacity:0.08;}
	.st10{fill:#FFFFFF;}
	.st11{fill:#56A8A6;}
	.st12{fill:#E09D6C;}
	.st13{fill:#EDBA8C;}
	.st14{display:none;}
	.st15{display:inline;}
	.st16{fill:none;stroke:#CEBCD8;stroke-width:2;stroke-miterlimit:10;}
</style>
<g id="BACKGROUND">
</g>
<g id="OBJECTS">
	<g>
		<g>
			<path class="st0" d="M276.94,242.42H29.52c-3.77,0-6.83-3.06-6.83-6.83V84.49c0-3.77,3.06-6.83,6.83-6.83h247.42
				c3.77,0,6.83,3.06,6.83,6.83v151.1C283.77,239.36,280.71,242.42,276.94,242.42z"/>
			<rect x="31.46" y="86.96" class="st1" width="243.17" height="146.35"/>
			<path class="st2" d="M295.54,255.4H9.52c-5.26,0-9.52-4.26-9.52-9.52v-3.46h305.06v3.46C305.06,251.14,300.8,255.4,295.54,255.4z
				"/>
			<path class="st3" d="M173.53,248.91h-40.6c-3.58,0-6.49-2.9-6.49-6.49l0,0h53.58l0,0C180.02,246.01,177.11,248.91,173.53,248.91z
				"/>
			<g>
				<rect x="53.2" y="104.44" class="st4" width="208.94" height="119.45"/>
				
					<text id="P4Mth_x27_25rQyB__x2C_Hc9_x5F_KR_x3D__x27_btn_ogGM_x5F_pzr3ybW_Gd_x2B_CsYxn8_x5F_PE_u_x2B_J_x25_E_x5E_9_x21_hx_x3F_p__Y_x21_-rq_x3B_7GxjTW_N_x5F_42_x2A_e_x21_m_x24_3Fe_iXLCfiM" transform="matrix(1 0 0 1 53.2002 112.5982)"><tspan x="0" y="0" class="st5 st6 st7">&lt;section id=”competences”&gt;</tspan><tspan x="0" y="21" class="st5 st6 st7">  &lt;ul&gt;</tspan><tspan x="0" y="42" class="st5 st6 st7">    &lt;li&gt;Elles sont à gauche&lt;/li&gt;</tspan><tspan x="0" y="63" class="st5 st6 st7">    &lt;li&gt;Où au dessus&lt;/li&gt;</tspan><tspan x="149.06" y="63" class="st5 st6 st7 st8">	</tspan><tspan x="0" y="84" class="st5 st6 st7">  &lt;/ul&gt;</tspan><tspan x="0" y="105" class="st5 st6 st7">&lt;/section&gt;</tspan></text>
			</g>
			<g class="st9">
				<polygon class="st10" points="152.32,242.42 118.69,242.42 175.22,77.66 208.85,77.66 				"/>
				<polygon class="st10" points="107.24,242.42 96.21,242.42 152.74,77.66 163.77,77.66 				"/>
			</g>
		</g>
		<g>
			<path class="st11" d="M119.34,96.55H70.15c-5.69,0-10.3-4.61-10.3-10.3V37.06c0-5.69,4.61-10.3,10.3-10.3h49.19
				c5.69,0,10.3,4.61,10.3,10.3v49.19C129.64,91.94,125.03,96.55,119.34,96.55z"/>
			<path class="st5" d="M114.27,91.44H65.09c-5.69,0-10.3-4.61-10.3-10.3V31.96c0-5.69,4.61-10.3,10.3-10.3h49.19
				c5.69,0,10.3,4.61,10.3,10.3v49.19C124.58,86.83,119.96,91.44,114.27,91.44z"/>
			<path class="st10" d="M89.68,35.41l-19.01,3.75v10.35c0,10.63,5.66,20.45,14.86,25.77l4.15,2.4l4.15-2.4
				c9.2-5.32,14.86-15.15,14.86-25.77V39.16L89.68,35.41z M101.21,49.63L88.05,62.79c-0.49,0.49-1.12,0.73-1.76,0.73
				c-0.64,0-1.27-0.24-1.76-0.73l-6.39-6.39c-0.97-0.97-0.97-2.55,0-3.52c0.97-0.97,2.55-0.97,3.52,0l4.63,4.63l11.4-11.4
				c0.97-0.97,2.55-0.97,3.52,0C102.18,47.09,102.18,48.66,101.21,49.63z"/>
		</g>
		<g>
			<path class="st12" d="M281.36,283.12h-49.19c-5.69,0-10.3-4.61-10.3-10.3v-49.19c0-5.69,4.61-10.3,10.3-10.3h49.19
				c5.69,0,10.3,4.61,10.3,10.3v49.19C291.66,278.5,287.05,283.12,281.36,283.12z"/>
			<path class="st13" d="M276.3,278.01h-49.19c-5.69,0-10.3-4.61-10.3-10.3v-49.19c0-5.69,4.61-10.3,10.3-10.3h49.19
				c5.69,0,10.3,4.61,10.3,10.3v49.19C286.6,273.4,281.99,278.01,276.3,278.01z"/>
			<path class="st10" d="M261.83,236.34v-2.05c0-5.58-4.54-10.13-10.13-10.13c-5.59,0-10.13,4.54-10.13,10.13v2.05h-2.73v25.72
				h25.72v-25.72H261.83z M244.58,234.29c0-3.93,3.2-7.13,7.13-7.13c3.93,0,7.13,3.2,7.13,7.13v2.05h-14.26V234.29z"/>
		</g>
		<g>
			<g>
				<path class="st0" d="M226.98,20.58h-5.15c-0.27-0.83-0.61-1.63-1-2.4l3.65-3.65c0.87-0.87,0.87-2.27,0-3.14l-4.66-4.66
					c-0.87-0.87-2.27-0.87-3.14,0l-3.65,3.65c-0.77-0.39-1.57-0.73-2.4-1V4.22c0-1.23-0.99-2.22-2.22-2.22h-6.59
					c-1.23,0-2.22,0.99-2.22,2.22v5.15c-0.83,0.27-1.63,0.61-2.4,1l-3.65-3.65c-0.87-0.87-2.27-0.87-3.14,0l-4.66,4.66
					c-0.87,0.87-0.87,2.27,0,3.14l3.65,3.65c-0.39,0.77-0.73,1.57-1,2.4h-5.15c-1.23,0-2.22,0.99-2.22,2.22v6.59
					c0,1.23,0.99,2.22,2.22,2.22h5.15c0.27,0.83,0.61,1.63,1,2.4l-3.65,3.65c-0.87,0.87-0.87,2.27,0,3.14l4.66,4.66
					c0.87,0.87,2.27,0.87,3.14,0l3.65-3.65c0.77,0.39,1.57,0.73,2.4,1v5.15c0,1.23,0.99,2.22,2.22,2.22h6.59
					c1.23,0,2.22-0.99,2.22-2.22v-5.15c0.83-0.27,1.63-0.61,2.4-1l3.65,3.65c0.87,0.87,2.27,0.87,3.14,0l4.66-4.66
					c0.87-0.87,0.87-2.27,0-3.14l-3.65-3.65c0.39-0.77,0.73-1.57,1-2.4h5.15c1.23,0,2.22-0.99,2.22-2.22V22.8
					C229.21,21.57,228.21,20.58,226.98,20.58z M205.11,35.14c-4.99,0-9.04-4.05-9.04-9.04c0-4.99,4.05-9.04,9.04-9.04
					c4.99,0,9.04,4.05,9.04,9.04C214.15,31.09,210.1,35.14,205.11,35.14z"/>
				<path class="st1" d="M225.98,18.58h-5.15c-0.27-0.83-0.61-1.63-1-2.4l3.65-3.65c0.87-0.87,0.87-2.27,0-3.14l-4.66-4.66
					c-0.87-0.87-2.27-0.87-3.14,0l-3.65,3.65c-0.77-0.39-1.57-0.73-2.4-1V2.22c0-1.23-0.99-2.22-2.22-2.22h-6.59
					c-1.23,0-2.22,0.99-2.22,2.22v5.15c-0.83,0.27-1.63,0.61-2.4,1l-3.65-3.65c-0.87-0.87-2.27-0.87-3.14,0l-4.66,4.66
					c-0.87,0.87-0.87,2.27,0,3.14l3.65,3.65c-0.39,0.77-0.73,1.57-1,2.4h-5.15c-1.23,0-2.22,0.99-2.22,2.22v6.59
					c0,1.23,0.99,2.22,2.22,2.22h5.15c0.27,0.83,0.61,1.63,1,2.4l-3.65,3.65c-0.87,0.87-0.87,2.27,0,3.14l4.66,4.66
					c0.87,0.87,2.27,0.87,3.14,0l3.65-3.65c0.77,0.39,1.57,0.73,2.4,1v5.15c0,1.23,0.99,2.22,2.22,2.22h6.59
					c1.23,0,2.22-0.99,2.22-2.22v-5.15c0.83-0.27,1.63-0.61,2.4-1l3.65,3.65c0.87,0.87,2.27,0.87,3.14,0l4.66-4.66
					c0.87-0.87,0.87-2.27,0-3.14l-3.65-3.65c0.39-0.77,0.73-1.57,1-2.4h5.15c1.23,0,2.22-0.99,2.22-2.22V20.8
					C228.21,19.57,227.21,18.58,225.98,18.58z M204.11,33.13c-4.99,0-9.04-4.05-9.04-9.04s4.05-9.04,9.04-9.04
					c4.99,0,9.04,4.05,9.04,9.04S209.1,33.13,204.11,33.13z"/>
			</g>
			<g>
				<path class="st0" d="M83.81,267.03h-5.15c-0.27-0.83-0.61-1.63-1-2.4l3.65-3.65c0.87-0.87,0.87-2.27,0-3.14l-4.66-4.66
					c-0.87-0.87-2.27-0.87-3.14,0l-3.65,3.65c-0.77-0.39-1.57-0.73-2.4-1v-5.15c0-1.23-0.99-2.22-2.22-2.22h-6.59
					c-1.23,0-2.22,0.99-2.22,2.22v5.15c-0.83,0.27-1.63,0.61-2.4,1l-3.65-3.65c-0.87-0.87-2.27-0.87-3.14,0l-4.66,4.66
					c-0.87,0.87-0.87,2.27,0,3.14l3.65,3.65c-0.39,0.77-0.73,1.57-1,2.4h-5.15c-1.23,0-2.22,0.99-2.22,2.22v6.59
					c0,1.23,0.99,2.22,2.22,2.22h5.15c0.27,0.83,0.61,1.63,1,2.4l-3.65,3.65c-0.87,0.87-0.87,2.27,0,3.14l4.66,4.66
					c0.87,0.87,2.27,0.87,3.14,0l3.65-3.65c0.77,0.39,1.57,0.73,2.4,1v5.15c0,1.23,0.99,2.22,2.22,2.22h6.59
					c1.23,0,2.22-0.99,2.22-2.22v-5.15c0.83-0.27,1.63-0.61,2.4-1l3.65,3.65c0.87,0.87,2.27,0.87,3.14,0l4.66-4.66
					c0.87-0.87,0.87-2.27,0-3.14l-3.65-3.65c0.39-0.77,0.73-1.57,1-2.4h5.15c1.23,0,2.22-0.99,2.22-2.22v-6.59
					C86.03,268.02,85.04,267.03,83.81,267.03z M61.94,281.58c-4.99,0-9.04-4.05-9.04-9.04c0-4.99,4.05-9.04,9.04-9.04
					c4.99,0,9.04,4.05,9.04,9.04C70.98,277.54,66.93,281.58,61.94,281.58z"/>
				<path class="st1" d="M82.81,265.03h-5.15c-0.27-0.83-0.61-1.63-1-2.4l3.65-3.65c0.87-0.87,0.87-2.27,0-3.14l-4.66-4.66
					c-0.87-0.87-2.27-0.87-3.14,0l-3.65,3.65c-0.77-0.39-1.57-0.73-2.4-1v-5.15c0-1.23-0.99-2.22-2.22-2.22h-6.59
					c-1.23,0-2.22,0.99-2.22,2.22v5.15c-0.83,0.27-1.63,0.61-2.4,1l-3.65-3.65c-0.87-0.87-2.27-0.87-3.14,0l-4.66,4.66
					c-0.87,0.87-0.87,2.27,0,3.14l3.65,3.65c-0.39,0.77-0.73,1.57-1,2.4h-5.15c-1.23,0-2.22,0.99-2.22,2.22v6.59
					c0,1.23,0.99,2.22,2.22,2.22h5.15c0.27,0.83,0.61,1.63,1,2.4l-3.65,3.65c-0.87,0.87-0.87,2.27,0,3.14l4.66,4.66
					c0.87,0.87,2.27,0.87,3.14,0l3.65-3.65c0.77,0.39,1.57,0.73,2.4,1v5.15c0,1.23,0.99,2.22,2.22,2.22h6.59
					c1.23,0,2.22-0.99,2.22-2.22v-5.15c0.83-0.27,1.63-0.61,2.4-1l3.65,3.65c0.87,0.87,2.27,0.87,3.14,0l4.66-4.66
					c0.87-0.87,0.87-2.27,0-3.14l-3.65-3.65c0.39-0.77,0.73-1.57,1-2.4h5.15c1.23,0,2.22-0.99,2.22-2.22v-6.59
					C85.03,266.02,84.04,265.03,82.81,265.03z M60.94,279.58c-4.99,0-9.04-4.05-9.04-9.04c0-4.99,4.05-9.04,9.04-9.04
					c4.99,0,9.04,4.05,9.04,9.04C69.98,275.54,65.93,279.58,60.94,279.58z"/>
			</g>
			<g>
				<path class="st0" d="M266.27,45.25h-3.35c-0.18-0.54-0.4-1.06-0.65-1.56l2.37-2.37c0.56-0.56,0.56-1.48,0-2.04l-3.03-3.03
					c-0.56-0.56-1.48-0.56-2.04,0l-2.37,2.37c-0.5-0.25-1.02-0.47-1.56-0.65V34.6c0-0.8-0.65-1.45-1.45-1.45h-4.29
					c-0.8,0-1.45,0.65-1.45,1.45v3.35c-0.54,0.18-1.06,0.4-1.56,0.65l-2.37-2.37c-0.56-0.56-1.48-0.56-2.04,0l-3.03,3.03
					c-0.56,0.56-0.56,1.48,0,2.04l2.37,2.37c-0.25,0.5-0.47,1.02-0.65,1.56h-3.35c-0.8,0-1.45,0.65-1.45,1.45v4.29
					c0,0.8,0.65,1.45,1.45,1.45h3.35c0.18,0.54,0.4,1.06,0.65,1.56l-2.37,2.37c-0.56,0.56-0.56,1.48,0,2.04l3.03,3.03
					c0.56,0.56,1.48,0.56,2.04,0l2.37-2.37c0.5,0.25,1.02,0.47,1.56,0.65v3.35c0,0.8,0.65,1.45,1.45,1.45h4.29
					c0.8,0,1.45-0.65,1.45-1.45v-3.35c0.54-0.18,1.06-0.4,1.56-0.65l2.37,2.37c0.56,0.56,1.48,0.56,2.04,0l3.03-3.03
					c0.56-0.56,0.56-1.48,0-2.04l-2.37-2.37c0.25-0.5,0.47-1.02,0.65-1.56h3.35c0.8,0,1.45-0.65,1.45-1.45V46.7
					C267.71,45.9,267.06,45.25,266.27,45.25z M252.03,54.72c-3.25,0-5.88-2.63-5.88-5.88c0-3.25,2.63-5.88,5.88-5.88
					c3.25,0,5.88,2.63,5.88,5.88C257.91,52.09,255.28,54.72,252.03,54.72z"/>
				<path class="st1" d="M265.62,43.95h-3.35c-0.18-0.54-0.4-1.06-0.65-1.56l2.37-2.37c0.56-0.56,0.56-1.48,0-2.04l-3.03-3.03
					c-0.56-0.56-1.48-0.56-2.04,0l-2.37,2.37c-0.5-0.25-1.02-0.47-1.56-0.65V33.3c0-0.8-0.65-1.45-1.45-1.45h-4.29
					c-0.8,0-1.45,0.65-1.45,1.45v3.35c-0.54,0.18-1.06,0.4-1.56,0.65l-2.37-2.37c-0.56-0.56-1.48-0.56-2.04,0l-3.03,3.03
					c-0.56,0.56-0.56,1.48,0,2.04l2.37,2.37c-0.25,0.5-0.47,1.02-0.65,1.56h-3.35c-0.8,0-1.45,0.65-1.45,1.45v4.29
					c0,0.8,0.65,1.45,1.45,1.45h3.35c0.18,0.54,0.4,1.06,0.65,1.56l-2.37,2.37c-0.56,0.56-0.56,1.48,0,2.04l3.03,3.03
					c0.56,0.56,1.48,0.56,2.04,0l2.37-2.37c0.5,0.25,1.02,0.47,1.56,0.65v3.35c0,0.8,0.65,1.45,1.45,1.45h4.29
					c0.8,0,1.45-0.65,1.45-1.45v-3.35c0.54-0.18,1.06-0.4,1.56-0.65l2.37,2.37c0.56,0.56,1.48,0.56,2.04,0l3.03-3.03
					c0.56-0.56,0.56-1.48,0-2.04l-2.37-2.37c0.25-0.5,0.47-1.02,0.65-1.56h3.35c0.8,0,1.45-0.65,1.45-1.45v-4.29
					C267.06,44.6,266.41,43.95,265.62,43.95z M251.38,53.42c-3.25,0-5.88-2.63-5.88-5.88c0-3.25,2.63-5.88,5.88-5.88
					c3.25,0,5.88,2.63,5.88,5.88C257.26,50.79,254.63,53.42,251.38,53.42z"/>
			</g>
		</g>
	</g>
	<g class="st14">
		<g class="st15">
			<g>
				<polyline class="st16" points="-106.64,319.38 -106.64,266.31 -77.52,237.19 -77.52,198.13 				"/>
				<g>
					<path class="st2" d="M-73.76,198.31c0-2.08-1.68-3.76-3.76-3.76s-3.76,1.68-3.76,3.76c0,2.08,1.68,3.76,3.76,3.76
						S-73.76,200.39-73.76,198.31z"/>
				</g>
			</g>
		</g>
		<g class="st15">
			<g>
				<polyline class="st16" points="-40.46,319.38 -40.46,299.38 -57.96,280.33 -57.96,241.26 				"/>
				<g>
					<path class="st2" d="M-54.2,241.45c0-2.08-1.68-3.76-3.76-3.76s-3.76,1.68-3.76,3.76c0,2.08,1.68,3.76,3.76,3.76
						S-54.2,243.52-54.2,241.45z"/>
				</g>
			</g>
		</g>
		<g class="st15">
			<g>
				<polyline class="st16" points="-194.8,319.38 -194.8,310.24 -212.3,291.19 -212.3,260.54 				"/>
				<g>
					<path class="st2" d="M-208.54,260.73c0-2.08-1.68-3.76-3.76-3.76s-3.76,1.68-3.76,3.76c0,2.08,1.68,3.76,3.76,3.76
						S-208.54,262.8-208.54,260.73z"/>
				</g>
			</g>
		</g>
		<g class="st15">
			<g>
				<polyline class="st16" points="-172.1,319.38 -172.1,299.38 -154.77,280.33 -154.77,241.26 				"/>
				<g>
					<path class="st2" d="M-151.01,241.45c0-2.08-1.68-3.76-3.76-3.76s-3.76,1.68-3.76,3.76c0,2.08,1.68,3.76,3.76,3.76
						S-151.01,243.52-151.01,241.45z"/>
				</g>
			</g>
		</g>
		<g class="st15">
			<g>
				<line class="st16" x1="-128.81" y1="319.38" x2="-128.81" y2="271.76"/>
				<g>
					<path class="st2" d="M-125.05,271.94c0-2.08-1.68-3.76-3.76-3.76c-2.08,0-3.76,1.68-3.76,3.76c0,2.08,1.68,3.76,3.76,3.76
						C-126.73,275.7-125.05,274.02-125.05,271.94z"/>
				</g>
			</g>
		</g>
		<g class="st15">
			<g>
				<line class="st16" x1="-238.33" y1="319.38" x2="-238.33" y2="294.7"/>
				<g>
					<path class="st2" d="M-234.57,294.89c0-2.08-1.68-3.76-3.76-3.76s-3.76,1.68-3.76,3.76c0,2.08,1.68,3.76,3.76,3.76
						S-234.57,296.97-234.57,294.89z"/>
				</g>
			</g>
		</g>
		<g class="st15">
			<g>
				<line class="st16" x1="-14.58" y1="319.38" x2="-14.58" y2="294.7"/>
				<g>
					<path class="st2" d="M-10.82,294.89c0-2.08-1.68-3.76-3.76-3.76s-3.76,1.68-3.76,3.76c0,2.08,1.68,3.76,3.76,3.76
						S-10.82,296.97-10.82,294.89z"/>
				</g>
			</g>
		</g>
		<g class="st15">
			<g>
				<line class="st16" x1="-77.52" y1="319.38" x2="-77.52" y2="294.7"/>
				<g>
					<path class="st2" d="M-73.76,294.89c0-2.08-1.68-3.76-3.76-3.76s-3.76,1.68-3.76,3.76c0,2.08,1.68,3.76,3.76,3.76
						S-73.76,296.97-73.76,294.89z"/>
				</g>
			</g>
		</g>
	</g>
</g>
</svg>
